<svg width="16" height="16" viewBox="0 0 16 16" fill="none" xmlns="http://www.w3.org/2000/svg">
<path fill-rule="evenodd" clip-rule="evenodd" d="M0.259068 5.31274H3.5775V16H0.259068V5.31274ZM1.92444 0C2.98535 0 3.84888 0.864865 3.84888 1.92741C3.84888 2.98996 2.98535 3.85483 1.92444 3.85483C0.857363 3.85483 0 2.98996 0 1.92741C0 0.864865 0.857363 0 1.92444 0Z" fill="#DADADA"/>
<path fill-rule="evenodd" clip-rule="evenodd" d="M5.66232 5.31275H8.83888V6.77684H8.88206C9.32616 5.93669 10.4056 5.05329 12.0216 5.05329C15.377 5.05329 16 7.26488 16 10.1436V16H12.6878V10.8046C12.6878 9.56294 12.6693 7.96912 10.9669 7.96912C9.23981 7.96912 8.98075 9.32202 8.98075 10.712V16H5.66849V5.31275H5.66232Z" fill="#DADADA"/>
</svg>
