<svg width="404" height="84" viewBox="0 0 404 84" fill="none" xmlns="http://www.w3.org/2000/svg">
<path d="M280.94 83.7153L276.526 77.385C276.242 77.4108 275.983 77.4108 275.699 77.4108H270.82V83.7153H266.793V62.063H275.699C281.379 62.063 284.916 64.9827 284.916 69.7628C284.916 73.0442 283.238 75.4471 280.321 76.6098L285.303 83.7153H280.94ZM275.493 65.4736H270.794V74.1036H275.493C279.004 74.1036 280.837 72.5016 280.837 69.7628C280.863 67.0498 279.03 65.4736 275.493 65.4736Z" fill="#687891"/>
<path d="M308.41 80.3563V83.7153H292.171V62.063H307.971V65.4219H296.198V71.0547H306.628V74.3619H296.198V80.3563H308.41Z" fill="#687891"/>
<path d="M316.878 62.063H320.879V80.3047H332.213V83.7153H316.878V62.063Z" fill="#687891"/>
<path d="M355.526 80.3563V83.7153H339.313V62.063H355.113V65.4219H343.314V71.0547H353.77V74.3619H343.314V80.3563H355.526Z" fill="#687891"/>
<path d="M362.135 81.4157L363.529 78.2893C365.259 79.6846 368.021 80.6665 370.681 80.6665C374.063 80.6665 375.483 79.4521 375.483 77.8501C375.483 73.1734 362.626 76.2481 362.626 68.1866C362.626 64.6985 365.414 61.7271 371.352 61.7271C373.959 61.7271 376.67 62.399 378.555 63.6392L377.29 66.7656C375.353 65.6287 373.211 65.0602 371.326 65.0602C367.996 65.0602 366.627 66.3521 366.627 68.0057C366.627 72.6049 379.458 69.6077 379.458 77.5659C379.458 81.0282 376.644 83.9995 370.706 83.9995C367.299 84.0254 363.916 82.966 362.135 81.4157Z" fill="#687891"/>
<path d="M386.016 81.4157L387.41 78.2893C389.14 79.6846 391.902 80.6665 394.561 80.6665C397.918 80.6665 399.363 79.4521 399.363 77.8501C399.363 73.1734 386.506 76.2481 386.506 68.1866C386.506 64.6985 389.295 61.7271 395.233 61.7271C397.84 61.7271 400.551 62.399 402.436 63.6392L401.171 66.7656C399.234 65.6287 397.091 65.0602 395.207 65.0602C391.876 65.0602 390.508 66.3521 390.508 68.0057C390.508 72.6049 403.339 69.6077 403.339 77.5659C403.339 81.0282 400.525 83.9995 394.587 83.9995C391.179 84.0254 387.797 82.966 386.016 81.4157Z" fill="#687891"/>
<path d="M101.434 9.48256H117.183V49.6091H127.355V9.48256H143.103V0.671814H101.434V9.48256Z" fill="#007EDE"/>
<path d="M160.607 29.0678H183.584V20.4637H160.607V9.43091H186.502V0.671814H150.461V49.6091H187.457V40.8758H160.607V29.0678Z" fill="#007EDE"/>
<path d="M216.63 20.8772C210.873 19.5077 205.89 18.3192 205.89 14.4693C205.89 10.8003 209.401 8.68159 215.546 8.68159C219.78 8.68159 224.323 9.9735 228.325 12.3248L228.996 12.7123L232.275 4.62503L231.81 4.31495C227.68 1.60195 221.639 0 215.623 0C206.484 0 195.796 3.90157 195.796 14.8827C195.796 25.4247 205.477 27.7501 213.274 29.6104C219.057 30.9798 224.039 32.1942 224.039 36.0958C224.039 39.6614 220.528 41.6251 214.177 41.6251C208.73 41.6251 202.74 39.6356 198.894 36.535L198.222 35.9924L194.608 44.1056L194.97 44.4415C199.1 48.0071 206.639 50.3067 214.152 50.3067C226.234 50.3067 234.031 44.4931 234.031 35.5015C234.082 25.0371 224.427 22.7375 216.63 20.8772Z" fill="#007EDE"/>
<path d="M266.457 9.06918C271.259 9.06918 275.39 10.8779 278.668 14.4435L279.107 14.9344L285.768 8.68159L285.355 8.19066C280.837 2.9197 273.97 0 266.044 0C250.889 0 239.917 10.5678 239.917 25.1405C239.917 39.7131 250.889 50.2809 265.992 50.2809C273.996 50.2809 280.863 47.3612 285.381 42.0902L285.794 41.6251L279.133 35.2948L278.668 35.7857C275.39 39.3772 271.285 41.2117 266.457 41.2117C257.008 41.2117 250.141 34.4422 250.141 25.1405C250.115 15.8388 256.982 9.06918 266.457 9.06918Z" fill="#007EDE"/>
<path d="M315.406 0C300.432 0 289.124 10.8003 289.124 25.1405C289.124 39.4806 300.432 50.2809 315.406 50.2809C330.638 50.2809 341.688 39.7131 341.688 25.1405C341.662 10.5678 330.612 0 315.406 0ZM331.439 25.1405C331.439 34.4422 324.674 41.2117 315.38 41.2117C306.086 41.2117 299.322 34.468 299.322 25.1405C299.322 15.8388 306.086 9.06918 315.38 9.06918C324.674 9.06918 331.439 15.8388 331.439 25.1405Z" fill="#007EDE"/>
<path d="M403.21 0.671814H394.923L376.747 31.6L358.237 0.671814H349.924V49.6091H359.682V20.1537L374.269 44.1573H378.942L393.554 19.7661L393.606 49.6091H403.287L403.21 0.671814Z" fill="#007EDE"/>
<path d="M72.3126 63.7425L66.2972 74.1552H28.6817L10.997 43.4854C10.997 43.4854 0.72176 44.7774 0.747577 44.829L23.1826 83.7153H71.8221L84.3691 61.9339C84.6015 61.5204 84.2142 61.0554 83.7753 61.2104C80.2126 62.4248 76.4691 63.174 72.6998 63.4841C72.5191 63.5099 72.39 63.6133 72.3126 63.7425Z" fill="#A6AFBE"/>
<path d="M71.0733 0.671814H22.4339L9.88681 22.4533C9.65445 22.8667 10.0417 23.3318 10.4806 23.1767C14.0433 21.9623 17.7868 21.2131 21.5561 20.903C21.711 20.8772 21.8659 20.7996 21.9434 20.6446L27.9588 10.2319H65.5743L83.259 40.9016L93.5858 39.7131L71.0733 0.671814Z" fill="#A6AFBE"/>
<path d="M93.56 39.7131C93.4309 39.4806 93.276 39.2739 93.0953 39.0672C92.992 38.938 92.8629 38.8346 92.7339 38.7313C90.9783 37.0776 88.2159 36.9743 86.357 38.6021C85.376 39.4547 84.3175 40.2299 83.2332 40.9275C78.7927 43.7697 73.6292 45.32 68.3109 45.32C61.6759 45.32 55.2733 42.917 50.2648 38.5762C43.5265 32.711 34.8778 29.507 25.9451 29.507C17.0124 29.507 8.38947 32.7368 1.6254 38.5762C1.57376 38.6021 1.54794 38.6538 1.4963 38.7054C1.41885 38.7829 1.3414 38.8605 1.28976 38.938C-0.181812 40.5141 -0.414154 42.8395 0.69598 44.674C0.825066 44.9066 0.979949 45.1133 1.16067 45.32C1.26394 45.4492 1.39302 45.5525 1.52211 45.6558C3.27767 47.3095 6.0401 47.4129 7.89893 45.8109C8.87998 44.9582 9.9385 44.1831 11.0228 43.4855C15.4634 40.6174 20.6268 39.093 25.9451 39.093C32.5801 39.093 38.9827 41.4959 43.9912 45.8109H44.017C50.7553 51.6761 59.404 54.8801 68.3367 54.8801C77.2694 54.8801 85.8923 51.6503 92.6564 45.8109C92.708 45.7851 92.7339 45.7334 92.7855 45.6817C92.863 45.6042 92.9404 45.5267 93.0179 45.4492C94.4378 43.8731 94.6702 41.5476 93.56 39.7131Z" fill="#007EDE"/>
<path d="M244.074 62.063L238.523 78.5994L233.075 62.063H229.358L223.755 78.5218L218.386 62.063H214.203L221.38 83.7153H225.666L231.113 67.6957L236.458 83.7153H240.743L247.894 62.063H244.074Z" fill="#687891"/>
<path d="M258.48 62.063H254.452V83.7153H258.48V62.063Z" fill="#687891"/>
</svg>
