<svg width="36" height="36" viewBox="0 0 36 36" fill="none" xmlns="http://www.w3.org/2000/svg">
<path fill-rule="evenodd" clip-rule="evenodd" d="M14.6802 29.4061C22.7894 29.4061 29.3603 22.8249 29.3603 14.703C29.3603 6.58241 22.7888 0 14.6802 0C6.57278 0 0 6.58302 0 14.703C0 22.8243 6.57216 29.4061 14.6802 29.4061ZM14.68 3.67574C20.7615 3.67574 25.6901 8.61248 25.6901 14.703C25.6901 20.7946 20.7621 25.7303 14.68 25.7303C8.59894 25.7303 3.66989 20.794 3.66989 14.703C3.66989 8.61304 8.5995 3.67574 14.68 3.67574Z" fill="#1E75BC"/>
<path d="M20.5096 18.731L32.6948 31.1425C33.0029 31.4563 33.0175 31.9817 32.7273 32.3122C32.5878 32.4711 32.4034 32.5562 32.2127 32.5615C32.0202 32.5668 31.8314 32.4921 31.6834 32.3413L24.803 25.3331C24.363 24.885 23.6638 24.9045 23.2494 25.3765C22.8426 25.8398 22.8628 26.5663 23.2947 27.0062L30.175 34.0143C30.7461 34.596 31.5015 34.903 32.2772 34.8814C33.0517 34.8598 33.7887 34.5109 34.3263 33.8986C35.4301 32.6415 35.3751 30.6631 34.2032 29.4694L22.018 17.0579C21.578 16.6097 20.8788 16.6292 20.4643 17.1012C20.0575 17.5646 20.0777 18.2911 20.5096 18.731Z" fill="#A5ADBC" stroke="#A5ADBC" stroke-width="0.4"/>
</svg>
