<svg width="20" height="16" viewBox="0 0 20 16" fill="none" xmlns="http://www.w3.org/2000/svg">
<path fill-rule="evenodd" clip-rule="evenodd" d="M19 1.2C19.5862 1.89089 19.7931 3.45454 19.7931 3.45454C19.7931 3.45454 20 5.3091 20 7.16361V8.87272C20 10.6909 19.7931 12.5455 19.7931 12.5455C19.7931 12.5455 19.5862 14.1091 19 14.8C18.2785 15.63 17.4635 15.7035 17.0592 15.74C17.0383 15.7419 17.0186 15.7437 17 15.7455C14.2069 16 10 16 10 16C10 16 4.79309 15.9636 3.20691 15.7819C3.12263 15.7614 3.01883 15.746 2.90081 15.7285C2.39112 15.653 1.61599 15.5382 1 14.8C0.413828 14.1092 0.206914 12.5455 0.206914 12.5455C0.206914 12.5455 0 10.7273 0 8.87276V7.16366C0 5.3091 0.206914 3.45454 0.206914 3.45454C0.206914 3.45454 0.379297 1.89093 1 1.2C1.72146 0.370048 2.53646 0.29648 2.94083 0.259978C2.96167 0.258098 2.98141 0.256315 3 0.254533C5.79309 0.0363736 10 0 10 0C10 0 14.2069 0.0363736 17 0.254533C17.0288 0.257294 17.0604 0.259846 17.0945 0.262603C17.5096 0.296147 18.299 0.359933 19 1.2ZM7.5862 12.2182V4.32725L14.1379 8.36365L7.5862 12.2182Z" fill="white"/>
</svg>
